<svg xmlns="http://www.w3.org/2000/svg" xmlns:xlink="http://www.w3.org/1999/xlink" width="1800" height="940" viewBox="0 0 1800 940" font-family="Segoe UI, Arial, Helvetica, sans-serif" xmlns:c2pa="http://c2pa.org/manifest"><metadata><c2pa:manifest>AAAWgmp1bWIAAAAeanVtZGMycGEAEQAQgAAAqgA4m3EDYzJwYQAAABZcanVtYgAAAEdqdW1kYzJtYQARABCAAACqADibcQN1cm46YzJwYTo2ZWY2OWVhOC1kNmMwLTRlOTktOTUyYS03Y2ViYzc0NTIxNmYAAAADl2p1bWIAAAApanVtZGMyYXMAEQAQgAAAqgA4m3EDYzJwYS5hc3NlcnRpb25zAAAAALxqdW1iAAAARGp1bWRjYm9yABEAEIAAAKoAOJtxE2MycGEuaW5ncmVkaWVudC52MwAAAAAYYzJzaFhQasmK2POCfuEr1N3G6wwAAABwY2JvcqNpZGM6Zm9ybWF0bWltYWdlL3N2Zyt4bWxqaW5zdGFuY2VJRHgseG1wOmlpZDoxZjU0NDIzMy03Y2E2LTRlMzktOTc0MS1mOTM3ZmJkOWViNDRscmVsYXRpb25zaGlwaHBhcmVudE9mAAAB4mp1bWIAAABBanVtZGNib3IAEQAQgAAAqgA4m3ETYzJwYS5hY3Rpb25zLnYyAAAAABhjMnNoXycqWZp3xBsoc7XfyMm/WwAAAZljYm9yomdhY3Rpb25zgqJmYWN0aW9ua2MycGEub3BlbmVkanBhcmFtZXRlcnOha2luZ3JlZGllbnRzgaJjdXJseC1zZWxmI2p1bWJmPWMycGEuYXNzZXJ0aW9ucy9jMnBhLmluZ3JlZGllbnQudjNkaGFzaFggc+YAxcy9ReW15HX+QUdGWq7Qro9ceZUMi7eNUz6VZv+kZmFjdGlvbngdY29tLmFudGhyb3BpYy5jbGF1ZGUucHJvdmlkZWRqcGFyYW1ldGVyc6F4H2NvbS5hbnRocm9waWMub3JpZ2luLWNvbmZpZGVuY2VndW5rbm93bmtkZXNjcmlwdGlvbnhmQ2xhdWRlIHByb3ZpZGVkIHRoaXMgZmlsZSBhdCB0aGUgcmVxdWVzdCBvZiBhIHVzZXIgYW5kIG1heSBoYXZlIGNyZWF0ZWQgb3IgbW9kaWZpZWQgdGhlIGZpbGUgY29udGVudHMubXNvZnR3YXJlQWdlbnShZG5hbWVmQ2xhdWRlcmFsbEFjdGlvbnNJbmNsdWRlZPUAAADIanVtYgAAAEBqdW1kY2JvcgARABCAAACqADibcRNjMnBhLmhhc2guZGF0YQAAAAAYYzJzaKeQ5f64/24LmLbyAbmwi4gAAACAY2JvcqVjYWxnZnNoYTI1NmNwYWRNAAAAAAAAAAAAAAAAAGRoYXNoWCAOXS5QWNs/1ccYFWNw89Typ/9o6MVQ3rhLm1TK+z3pVWRuYW1lbmp1bWJmIG1hbmlmZXN0amV4Y2x1c2lvbnOBomVzdGFydBj4Zmxlbmd0aBkeBAAAAj5qdW1iAAAAJ2p1bWRjMmNsABEAEIAAAKoAOJtxA2MycGEuY2xhaW0udjIAAAACD2Nib3KlY2FsZ2ZzaGEyNTZpc2lnbmF0dXJleE1zZWxmI2p1bWJmPS9jMnBhL3VybjpjMnBhOjZlZjY5ZWE4LWQ2YzAtNGU5OS05NTJhLTdjZWJjNzQ1MjE2Zi9jMnBhLnNpZ25hdHVyZWppbnN0YW5jZUlEeCx4bXA6aWlkOmZlZmEzMzg1LTg5YWEtNDY3Ni1iYzkxLTRhMzZlNmI2ZmY5OXJjcmVhdGVkX2Fzc2VydGlvbnODomN1cmx4LXNlbGYjanVtYmY9YzJwYS5hc3NlcnRpb25zL2MycGEuaW5ncmVkaWVudC52M2RoYXNoWCBz5gDFzL1F5bXkdf5BR0ZartCuj1x5lQyLt41TPpVm/6JjdXJseCpzZWxmI2p1bWJmPWMycGEuYXNzZXJ0aW9ucy9jMnBhLmFjdGlvbnMudjJkaGFzaFggyN1CBchC3n4ez6Ii5tslY8TV3iTmHvNsOMKuVo8V0VyiY3VybHgpc2VsZiNqdW1iZj1jMnBhLmFzc2VydGlvbnMvYzJwYS5oYXNoLmRhdGFkaGFzaFgg83j/WprXYOdnI1PbNHsCOlMSg+BgBxGM5TlihI1fl6B0Y2xhaW1fZ2VuZXJhdG9yX2luZm+jZG5hbWVvQW50aHJvcGljIEZpbGVzZ3ZlcnNpb25lMS4wLjBrc3BlY1ZlcnNpb25lMi40LjAAABA4anVtYgAAAChqdW1kYzJjcwARABCAAACqADibcQNjMnBhLnNpZ25hdHVyZQAAABAIY2JvctKEWQISogEmGCFZAgowggIGMIIBjaADAgECAhRA5aAK7sI50L64g/oGQgU9Z1UTADAKBggqhkjOPQQDAzBJMRcwFQYDVQQKEw5BbnRocm9waWMsIFBCQzEuMCwGA1UEAxMlQW50aHJvcGljIENvbnRlbnQgQ3JlZGVudGlhbHMgUm9vdCBDQTAeFw0yNjA4MDcxODQzNTZaFw0yODA4MDYxOTQzNTZaMEQxFzAVBgNVBAoTDkFudGhyb3BpYywgUEJDMSkwJwYDVQQDEyBBbnRocm9waWMgQ2xhdWRlIENvbnRlbnQgU2lnbmluZzBZMBMGByqGSM49AgEGCCqGSM49AwEHA0IABJh6CmvLUBgFFNU0vUKlOVtE6djd17L5SuwX0LemFisBM3dkd/3cyjxFA3Qo5S46fX0/ihY0VZ7mfb9KF703t5OjWDBWMA4GA1UdDwEB/wQEAwIHgDAVBgNVHSUEDjAMBgorBgEEAYPoXgIBMAwGA1UdEwEB/wQCMAAwHwYDVR0jBBgwFoAUzlHiBIFOZFsj+OPEz5o+nMHXXMIwCgYIKoZIzj0EAwMDZwAwZAIwMXMdFJ4BetLLVY7ORuE9noqbbAZOZn/aArXyTwFAZfKrPzxF2vPoJNf1+UCdg1XGAjBwX1zd9WGqYkqmL5SFqw1QySjr1zJfpJM9+1rdDwSPLMOPOjKuiXjoU/pUUeG9RwmhY3BhZFkNngAAAAAAAAAAAAAAAAAAAAAAAAAAAAAAAAAAAAAAAAAAAAAAAAAAAAAAAAAAAAAAAAAAAAAAAAAAAAAAAAAAAAAAAAAAAAAAAAAAAAAAAAAAAAAAAAAAAAAAAAAAAAAAAAAAAAAAAAAAAAAAAAAAAAAAAAAAAAAAAAAAAAAAAAAAAAAAAAAAAAAAAAAAAAAAAAAAAAAAAAAAAAAAAAAAAAAAAAAAAAAAAAAAAAAAAAAAAAAAAAAAAAAAAAAAAAAAAAAAAAAAAAAAAAAAAAAAAAAAAAAAAAAAAAAAAAAAAAAAAAAAAAAAAAAAAAAAAAAAAAAAAAAAAAAAAAAAAAAAAAAAAAAAAAAAAAAAAAAAAAAAAAAAAAAAAAAAAAAAAAAAAAAAAAAAAAAAAAAAAAAAAAAAAAAAAAAAAAAAAAAAAAAAAAAAAAAAAAAAAAAAAAAAAAAAAAAAAAAAAAAAAAAAAAAAAAAAAAAAAAAAAAAAAAAAAAAAAAAAAAAAAAAAAAAAAAAAAAAAAAAAAAAAAAAAAAAAAAAAAAAAAAAAAAAAAAAAAAAAAAAAAAAAAAAAAAAAAAAAAAAAAAAAAAAAAAAAAAAAAAAAAAAAAAAAAAAAAAAAAAAAAAAAAAAAAAAAAAAAAAAAAAAAAAAAAAAAAAAAAAAAAAAAAAAAAAAAAAAAAAAAAAAAAAAAAAAAAAAAAAAAAAAAAAAAAAAAAAAAAAAAAAAAAAAAAAAAAAAAAAAAAAAAAAAAAAAAAAAAAAAAAAAAAAAAAAAAAAAAAAAAAAAAAAAAAAAAAAAAAAAAAAAAAAAAAAAAAAAAAAAAAAAAAAAAAAAAAAAAAAAAAAAAAAAAAAAAAAAAAAAAAAAAAAAAAAAAAAAAAAAAAAAAAAAAAAAAAAAAAAAAAAAAAAAAAAAAAAAAAAAAAAAAAAAAAAAAAAAAAAAAAAAAAAAAAAAAAAAAAAAAAAAAAAAAAAAAAAAAAAAAAAAAAAAAAAAAAAAAAAAAAAAAAAAAAAAAAAAAAAAAAAAAAAAAAAAAAAAAAAAAAAAAAAAAAAAAAAAAAAAAAAAAAAAAAAAAAAAAAAAAAAAAAAAAAAAAAAAAAAAAAAAAAAAAAAAAAAAAAAAAAAAAAAAAAAAAAAAAAAAAAAAAAAAAAAAAAAAAAAAAAAAAAAAAAAAAAAAAAAAAAAAAAAAAAAAAAAAAAAAAAAAAAAAAAAAAAAAAAAAAAAAAAAAAAAAAAAAAAAAAAAAAAAAAAAAAAAAAAAAAAAAAAAAAAAAAAAAAAAAAAAAAAAAAAAAAAAAAAAAAAAAAAAAAAAAAAAAAAAAAAAAAAAAAAAAAAAAAAAAAAAAAAAAAAAAAAAAAAAAAAAAAAAAAAAAAAAAAAAAAAAAAAAAAAAAAAAAAAAAAAAAAAAAAAAAAAAAAAAAAAAAAAAAAAAAAAAAAAAAAAAAAAAAAAAAAAAAAAAAAAAAAAAAAAAAAAAAAAAAAAAAAAAAAAAAAAAAAAAAAAAAAAAAAAAAAAAAAAAAAAAAAAAAAAAAAAAAAAAAAAAAAAAAAAAAAAAAAAAAAAAAAAAAAAAAAAAAAAAAAAAAAAAAAAAAAAAAAAAAAAAAAAAAAAAAAAAAAAAAAAAAAAAAAAAAAAAAAAAAAAAAAAAAAAAAAAAAAAAAAAAAAAAAAAAAAAAAAAAAAAAAAAAAAAAAAAAAAAAAAAAAAAAAAAAAAAAAAAAAAAAAAAAAAAAAAAAAAAAAAAAAAAAAAAAAAAAAAAAAAAAAAAAAAAAAAAAAAAAAAAAAAAAAAAAAAAAAAAAAAAAAAAAAAAAAAAAAAAAAAAAAAAAAAAAAAAAAAAAAAAAAAAAAAAAAAAAAAAAAAAAAAAAAAAAAAAAAAAAAAAAAAAAAAAAAAAAAAAAAAAAAAAAAAAAAAAAAAAAAAAAAAAAAAAAAAAAAAAAAAAAAAAAAAAAAAAAAAAAAAAAAAAAAAAAAAAAAAAAAAAAAAAAAAAAAAAAAAAAAAAAAAAAAAAAAAAAAAAAAAAAAAAAAAAAAAAAAAAAAAAAAAAAAAAAAAAAAAAAAAAAAAAAAAAAAAAAAAAAAAAAAAAAAAAAAAAAAAAAAAAAAAAAAAAAAAAAAAAAAAAAAAAAAAAAAAAAAAAAAAAAAAAAAAAAAAAAAAAAAAAAAAAAAAAAAAAAAAAAAAAAAAAAAAAAAAAAAAAAAAAAAAAAAAAAAAAAAAAAAAAAAAAAAAAAAAAAAAAAAAAAAAAAAAAAAAAAAAAAAAAAAAAAAAAAAAAAAAAAAAAAAAAAAAAAAAAAAAAAAAAAAAAAAAAAAAAAAAAAAAAAAAAAAAAAAAAAAAAAAAAAAAAAAAAAAAAAAAAAAAAAAAAAAAAAAAAAAAAAAAAAAAAAAAAAAAAAAAAAAAAAAAAAAAAAAAAAAAAAAAAAAAAAAAAAAAAAAAAAAAAAAAAAAAAAAAAAAAAAAAAAAAAAAAAAAAAAAAAAAAAAAAAAAAAAAAAAAAAAAAAAAAAAAAAAAAAAAAAAAAAAAAAAAAAAAAAAAAAAAAAAAAAAAAAAAAAAAAAAAAAAAAAAAAAAAAAAAAAAAAAAAAAAAAAAAAAAAAAAAAAAAAAAAAAAAAAAAAAAAAAAAAAAAAAAAAAAAAAAAAAAAAAAAAAAAAAAAAAAAAAAAAAAAAAAAAAAAAAAAAAAAAAAAAAAAAAAAAAAAAAAAAAAAAAAAAAAAAAAAAAAAAAAAAAAAAAAAAAAAAAAAAAAAAAAAAAAAAAAAAAAAAAAAAAAAAAAAAAAAAAAAAAAAAAAAAAAAAAAAAAAAAAAAAAAAAAAAAAAAAAAAAAAAAAAAAAAAAAAAAAAAAAAAAAAAAAAAAAAAAAAAAAAAAAAAAAAAAAAAAAAAAAAAAAAAAAAAAAAAAAAAAAAAAAAAAAAAAAAAAAAAAAAAAAAAAAAAAAAAAAAAAAAAAAAAAAAAAAAAAAAAAAAAAAAAAAAAAAAAAAAAAAAAAAAAAAAAAAAAAAAAAAAAAAAAAAAAAAAAAAAAAAAAAAAAAAAAAAAAAAAAAAAAAAAAAAAAAAAAAAAAAAAAAAAAAAAAAAAAAAAAAAAAAAAAAAAAAAAAAAAAAAAAAAAAAAAAAAAAAAAAAAAAAAAAAAAAAAAAAAAAAAAAAAAAAAAAAAAAAAAAAAAAAAAAAAAAAAAAAAAAAAAAAAAAAAAAAAAAAAAAAAAAAAAAAAAAAAAAAAAAAAAAAAAAAAAAAAAAAAAAAAAAAAAAAAAAAAAAAAAAAAAAAAAAAAAAAAAAAAAAAAAAAAAAAAAAAAAAAAAAAAAAAAAAAAAAAAAAAAAAAAAAAAAAAAAAAAAAAAAAAAAAAAAAAAAAAAAAAAAAAAAAAAAAAAAAAAAAAAAAAAAAAAAAAAAAAAAAAAAAAAAAAAAAAAAAAAAAAAAAAAAAAAAAAAAAAAAAAAAAAAAAAAAAAAAAAAAAAAAAAAAAAAAAAAAAAAAAAAAAAAAAAAAAAAAAAAAAAAAAAAAAAAAAAAAAAAAAAAAAAAAAAAAAAAAAAAAAAAAAAAAAAAAAAAAAAAAAAAAAAAAAAAAAAAAAAAAAAAAAAAAAAAAAAAAAAAAAAAAAAAAAAAAAAAAAAAAAAAAAAAAAAAAAAAAAAAAAAAAAAAAAAAAAAAAAAAAAAAAAAAAAAAAAAAAAAAAAAAAAAAAAAAAAAAAAAAAAAAAAAAAAAAAAAAAAAAAAAAAAAAAAAAAAAAAAAAAAAAAAAAAAAAAAAAAAAAAAAAAAAAAAAAAAAAAAAAAAAAAAAAAAAAAAAAAAAAAAAAAAAAAAAAAAAAAAAAAAAAAAAAAAAAAAAAAAAAAAAAAAAAAAAAAAAAAAAAAAAAAAAAAAAAAAAAAAAAAAAAAAAAAAAAAAAAAAAAAAAAAAAAAAAAAAAAAAAAAAAAAAAAAAAAAAAAAAAAAAAAAAAAAAAAAAAAAAAAAAAAAAAAAAAAAAAAAAAAAAAAAAAAAAAAAAAAAAAAAAAAAAAAAAAAAAAAAAAAAAAAAAAAAAAAAAAAAAAAAAAAAAAAAAAAAAAAAAAAAAAAAAAAAAAAAAAAAAAAAAAAAAAAAAAAAAAAAAAAAAAAAAAAAAAAAAAAAAAAAAAAAAAAAAAAAAAAAAAAAAAAAAAAAAAAAAAAAAAAAAAAAAAAAAAAAAAAAAAAAAAAAAAAAAAAAAAAAAAAAAAAAAAAAAAAAAAAAAAAAAAAAAAAAAAAAAAAAAAAAAAAAAAAAAAAAAAAAAAAAAAAAAAAAAAAAAAAAAAAAAAAAAAAAAAAAAAAAAAAAAAAAAAAAAAAAAAAAAAAAAAAAAAAAAAAAAAAAAAAAAAAAAAAAAAAAAAAAAAAAAAAAAAAAAAAAAAAAAAAAAAAAAAAAAAAAAAAAAAAAAAAAAAAAAAAAAAAAAAAAAAAAAAAAAAAAAAAAAAAAAAAAAAAAAAAAAAAAAAAAAAAAAAAAAAAAAAAAAAAAAAAAAAAAAAAAAAAAAAAAAAAAAAAAAAAAAAAAAAAAAAAAAAAAAAAAAAAAAAAAAAAAAAAAAAAAAAAAAAAAAAAAAAAAAAAAAAAAAAAAAAAAAAAAAAAAAAAAAAAAAAAAAAAAAAAAAAAAAAAAAAAAAAAAAAAAAAAAAAAAAAAAAAAPZYQHyUfQv295KDpfG7cIH4nDwC8uBVyksalfrgB1TSbzbZmgc/loLjLl8vzEpT9p6rASjHeeLR+LiY3T4GQwyxsFU=</c2pa:manifest></metadata>
<title>India Weather Lakehouse: Azure medallion architecture</title>
<defs>
<style>
.flow{stroke-dasharray:9 7;animation:dash 1s linear infinite}
@keyframes dash{to{stroke-dashoffset:-16}}
.pulse{animation:pulse 2.2s ease-in-out infinite;transform-box:fill-box;transform-origin:center}
@keyframes pulse{0%,100%{transform:scale(1)}50%{transform:scale(1.12)}}
</style>
<linearGradient id="gBronze" x1="0" y1="0" x2="1" y2="1"><stop offset="0" stop-color="#E3A56B"/><stop offset="1" stop-color="#9C5A1E"/></linearGradient>
<linearGradient id="gSilver" x1="0" y1="0" x2="1" y2="1"><stop offset="0" stop-color="#D9DEE6"/><stop offset="1" stop-color="#7C8797"/></linearGradient>
<linearGradient id="gGold" x1="0" y1="0" x2="1" y2="1"><stop offset="0" stop-color="#FFE38F"/><stop offset="1" stop-color="#C99100"/></linearGradient>
<marker id="mGray" viewBox="0 0 10 10" refX="8" refY="5" markerWidth="7" markerHeight="7" orient="auto"><path d="M0 0 L10 5 L0 10 z" fill="#4B5563"/></marker>
<marker id="mBlue" viewBox="0 0 10 10" refX="8" refY="5" markerWidth="7" markerHeight="7" orient="auto"><path d="M0 0 L10 5 L0 10 z" fill="#0078D4"/></marker>
<marker id="mRed" viewBox="0 0 10 10" refX="8" refY="5" markerWidth="7" markerHeight="7" orient="auto"><path d="M0 0 L10 5 L0 10 z" fill="#E0301E"/></marker>
<marker id="mPurple" viewBox="0 0 10 10" refX="8" refY="5" markerWidth="7" markerHeight="7" orient="auto"><path d="M0 0 L10 5 L0 10 z" fill="#5C2D91"/></marker>
</defs>
<rect width="1800" height="940" fill="#F7F9FC"/>

<text x="40" y="62" font-size="36" font-weight="700" fill="#111827">India Weather Lakehouse</text>
<text x="40" y="96" font-size="17" fill="#4B5563">End-to-end Azure data pipeline with medallion architecture (bronze, silver, gold). Runs by itself every morning.</text>
<rect x="273" y="201" width="240" height="60" rx="30" fill="#0F172A" opacity="0.07"/>
<rect x="270" y="196" width="240" height="60" rx="30" fill="#E6F2FB" stroke="#0078D4" stroke-width="2"/>
<g transform="translate(292,212)"><circle cx="14" cy="14" r="13" fill="#fff" stroke="#0078D4" stroke-width="2.5"/><line x1="14" y1="14" x2="14" y2="6" stroke="#0078D4" stroke-width="2.5" stroke-linecap="round"/><line x1="14" y1="14" x2="20" y2="17" stroke="#0078D4" stroke-width="2.5" stroke-linecap="round"/></g>
<text x="334" y="222" font-size="15" font-weight="700" fill="#004E8C">Schedule trigger</text>
<text x="334" y="242" font-size="13" fill="#004E8C">Every day at 6:00 AM IST</text>
<line class="flow" x1="390" y1="260" x2="390" y2="334" stroke="#0078D4" stroke-width="3" marker-end="url(#mBlue)"/>
<rect x="43" y="345" width="200" height="200" rx="16" fill="#0F172A" opacity="0.07"/>
<rect x="40" y="340" width="200" height="200" rx="16" fill="#fff" stroke="#5F6368" stroke-width="2"/>
<text x="140.0" y="368" text-anchor="middle" font-size="12" font-weight="700" letter-spacing="2.5" fill="#5F6368">SOURCE</text>
<g transform="translate(108.0,382) scale(1.0)"><line x1="37.0" y1="24.0" x2="42.0" y2="24.0" stroke="#FDB813" stroke-width="2.5" stroke-linecap="round"/><line x1="32.6" y1="34.6" x2="36.1" y2="38.1" stroke="#FDB813" stroke-width="2.5" stroke-linecap="round"/><line x1="22.0" y1="39.0" x2="22.0" y2="44.0" stroke="#FDB813" stroke-width="2.5" stroke-linecap="round"/><line x1="11.4" y1="34.6" x2="7.9" y2="38.1" stroke="#FDB813" stroke-width="2.5" stroke-linecap="round"/><line x1="7.0" y1="24.0" x2="2.0" y2="24.0" stroke="#FDB813" stroke-width="2.5" stroke-linecap="round"/><line x1="11.4" y1="13.4" x2="7.9" y2="9.9" stroke="#FDB813" stroke-width="2.5" stroke-linecap="round"/><line x1="22.0" y1="9.0" x2="22.0" y2="4.0" stroke="#FDB813" stroke-width="2.5" stroke-linecap="round"/><line x1="32.6" y1="13.4" x2="36.1" y2="9.9" stroke="#FDB813" stroke-width="2.5" stroke-linecap="round"/><circle cx="22" cy="24" r="12" fill="#FDB813"/><path d="M18 58 h34 a12 12 0 0 0 0 -24 a16 16 0 0 0 -30 4 a10 10 0 0 0 -4 20 z" fill="#EAF2FC" stroke="#4A90D9" stroke-width="2.5"/></g>
<text x="140.0" y="472" text-anchor="middle" font-size="17" font-weight="700" fill="#111827">Open-Meteo API</text>
<text x="140.0" y="496" text-anchor="middle" font-size="13" fill="#4B5563">6 Indian cities</text>
<text x="140.0" y="516" text-anchor="middle" font-size="13" fill="#4B5563">Hourly weather (JSON)</text>
<rect x="283" y="345" width="220" height="200" rx="16" fill="#0F172A" opacity="0.07"/>
<rect x="280" y="340" width="220" height="200" rx="16" fill="#fff" stroke="#0078D4" stroke-width="2"/>
<text x="390.0" y="368" text-anchor="middle" font-size="12" font-weight="700" letter-spacing="2.5" fill="#0078D4">INGEST</text>
<g transform="translate(358.00,382.00) scale(3.5556)"><defs><linearGradient id="adf_a" x1=".5" y1="9.77" x2="9" y2="9.77" gradientUnits="userSpaceOnUse"><stop offset="0" stop-color="#005ba1"/><stop offset=".07" stop-color="#0060a9"/><stop offset=".36" stop-color="#0071c8"/><stop offset=".52" stop-color="#0078d4"/><stop offset=".64" stop-color="#0074cd"/><stop offset=".81" stop-color="#006abb"/><stop offset=".99" stop-color="#005ba1"/></linearGradient></defs><path d="M13.25 10.48V6.57a.14.14 0 00-.24-.1l-4 4-4.16 4.16v2.87h12.08a.56.56 0 00.57-.57V6.57a.14.14 0 00-.24-.1z" fill="#005ba1"/><path d="M4.75 3.58C2.4 3.58.5 2.89.5 2v14.93a.56.56 0 00.57.57H9V2c0 .89-1.9 1.58-4.25 1.58z" fill="url(#adf_a)"/><rect x="12.91" y="12.97" width="2.27" height="2.27" rx=".28" fill="#fff"/><rect x="8.97" y="12.97" width="2.27" height="2.27" rx=".28" fill="#fff"/><rect x="5.03" y="12.97" width="2.27" height="2.27" rx=".28" fill="#fff"/><path d="M9 2c0 .85-1.9 1.54-4.25 1.54S.5 2.89.5 2 2.4.5 4.75.5 9 1.19 9 2" fill="#eaeaea"/><path d="M8 1.91c0 .55-1.46 1-3.26 1s-3.26-.43-3.26-1S3 .94 4.75.94 8 1.37 8 1.91" fill="#50e6ff"/><path d="M4.75 2.14a8.07 8.07 0 00-2.58.37 7.64 7.64 0 002.58.38 7.64 7.64 0 002.58-.38 8.07 8.07 0 00-2.58-.37z" fill="#198ab3"/></g>
<text x="390.0" y="472" text-anchor="middle" font-size="17" font-weight="700" fill="#111827">Azure Data Factory</text>
<text x="390.0" y="496" text-anchor="middle" font-size="13" fill="#4B5563">ForEach over 6 cities</text>
<text x="390.0" y="516" text-anchor="middle" font-size="13" fill="#4B5563">HTTP + Binary copy</text>
<line class="flow" x1="244" y1="440" x2="276" y2="440" stroke="#4B5563" stroke-width="3" marker-end="url(#mGray)"/>
<line class="flow" x1="504" y1="440" x2="566" y2="440" stroke="#4B5563" stroke-width="3" marker-end="url(#mGray)"/>
<rect x="543" y="205" width="940" height="470" rx="22" fill="#0F172A" opacity="0.07"/>
<rect x="540" y="200" width="940" height="470" rx="22" fill="#FFFFFF" stroke="#0078D4" stroke-width="2"/>
<g transform="translate(566.00,214.00) scale(2.1111)"><defs><linearGradient id="stor_a" x1="9" y1="15.83" x2="9" y2="5.79" gradientUnits="userSpaceOnUse"><stop offset="0" stop-color="#b3b3b3"/><stop offset=".26" stop-color="#c1c1c1"/><stop offset="1" stop-color="#e6e6e6"/></linearGradient></defs><path d="M.5 5.79h17v9.48a.57.57 0 01-.57.57H1.07a.57.57 0 01-.57-.57V5.79z" fill="url(#stor_a)"/><path d="M1.07 2.17h15.86a.57.57 0 01.57.57v3.05H.5V2.73a.57.57 0 01.57-.56z" fill="#37c2b1"/><path d="M2.81 6.89h12.37a.27.27 0 01.26.27v1.4a.27.27 0 01-.26.27H2.81a.27.27 0 01-.26-.27v-1.4a.27.27 0 01.26-.27z" fill="#fff"/><path d="M2.82 9.68h12.37a.27.27 0 01.26.27v1.41a.27.27 0 01-.26.27H2.82a.27.27 0 01-.26-.27V10a.27.27 0 01.26-.32z" fill="#37c2b1"/><path d="M2.82 12.5h12.37a.27.27 0 01.26.27v1.41a.27.27 0 01-.26.27H2.82a.27.27 0 01-.26-.27v-1.41a.27.27 0 01.26-.27z" fill="#258277"/></g>
<text x="614" y="240" font-size="19" font-weight="700" fill="#111827">Azure Data Lake Storage Gen2</text>
<g transform="translate(1296.00,212.00) scale(1.6667)" fill="#00ADD4"><path d="M24 13.455h-.689l-.288-.739h-1.2l-.289.739h-.644l1.233-2.96h.666zm-1.16-1.233l-.411-1.044-.411 1.044zm-4.315 1.233h.66v-2.438h.995v-.51h-2.644v.51h.989zm-3.826 0h1.927v-.511H15.36v-2.438h-.661zm-3.282-2.438h1.416v-.51h-2.077v2.948h2.121v-.511h-1.46v-.766h1.25v-.511h-1.25zm-4.981 2.438h1.038c1.072 0 1.71-.555 1.71-1.472 0-.916-.638-1.471-1.71-1.471H6.436zm.655-2.438h.383c.694 0 1.044.344 1.044.96 0 .617-.344.961-1.044.961h-.383zm-2.277 2.155a.15.15 0 0 1 .15.15.15.15 0 0 1-.15.15.15.15 0 0 1-.15-.15.15.15 0 0 1 .15-.15m0 .277a.13.13 0 0 0 .134-.127c0-.073-.056-.128-.134-.128a.126.126 0 0 0-.127.128c0 .072.055.127.127.127m-.033-.039H4.76v-.177h.067c.038 0 .055.016.055.05 0 .033-.022.044-.044.05l.055.077h-.028l-.05-.077h-.033zm0-.1h.028c.022 0 .05 0 .05-.027 0-.022-.022-.028-.039-.028h-.039zM0 13.85h4.626l-2.31-.978zm.172-.395l2.144-1.033 2.143 1.033-2.143-3.304Z"/></g>
<text x="1342" y="238" font-size="17" font-weight="700" fill="#00ADD4">Delta Lake</text>
<text x="1010" y="276" text-anchor="middle" font-size="14" font-style="italic" fill="#6B7280">Medallion architecture: every layer is cleaner and more useful than the one before</text>
<rect x="573" y="305" width="210" height="280" rx="14" fill="#0F172A" opacity="0.07"/>
<rect x="570" y="300" width="210" height="280" rx="14" fill="#fff" stroke="#A65F1F" stroke-width="2"/>
<rect x="570" y="300" width="210" height="72" rx="14" fill="url(#gBronze)"/>
<rect x="570" y="350" width="210" height="22" fill="url(#gBronze)"/>
<circle class="pulse" cx="606" cy="336" r="24" fill="#fff" stroke="#A65F1F" stroke-width="3"/>
<text x="606" y="345" text-anchor="middle" font-size="24" font-weight="700" fill="#A65F1F">1</text>
<text x="697.0" y="337" text-anchor="middle" font-size="22" font-weight="700" letter-spacing="2" fill="#fff">BRONZE</text>
<text x="697.0" y="358" text-anchor="middle" font-size="13" fill="#fff">raw zone</text>
<text x="675.0" y="406" text-anchor="middle" font-size="14" fill="#374151">Raw JSON, as received</text>
<text x="675.0" y="430" text-anchor="middle" font-size="14" fill="#374151">One file per city per day</text>
<text x="675.0" y="454" text-anchor="middle" font-size="14" fill="#374151">Never modified</text>
<rect x="587.0" y="488" width="176" height="28" rx="8" fill="#F3F4F6" stroke="#A65F1F" stroke-opacity="0.6"/>
<text x="675.0" y="507" text-anchor="middle" font-size="12" font-family="Consolas, Menlo, monospace" fill="#374151">Mumbai_2026-10-08.json</text>
<rect x="587.0" y="524" width="176" height="28" rx="8" fill="#F3F4F6" stroke="#A65F1F" stroke-opacity="0.6"/>
<text x="675.0" y="543" text-anchor="middle" font-size="12" font-family="Consolas, Menlo, monospace" fill="#374151">Delhi_2026-10-08.json</text>
<rect x="908" y="305" width="210" height="280" rx="14" fill="#0F172A" opacity="0.07"/>
<rect x="905" y="300" width="210" height="280" rx="14" fill="#fff" stroke="#6B7685" stroke-width="2"/>
<rect x="905" y="300" width="210" height="72" rx="14" fill="url(#gSilver)"/>
<rect x="905" y="350" width="210" height="22" fill="url(#gSilver)"/>
<circle class="pulse" cx="941" cy="336" r="24" fill="#fff" stroke="#6B7685" stroke-width="3"/>
<text x="941" y="345" text-anchor="middle" font-size="24" font-weight="700" fill="#6B7685">2</text>
<text x="1032.0" y="337" text-anchor="middle" font-size="22" font-weight="700" letter-spacing="2" fill="#fff">SILVER</text>
<text x="1032.0" y="358" text-anchor="middle" font-size="13" fill="#fff">cleaned zone</text>
<text x="1010.0" y="406" text-anchor="middle" font-size="14" fill="#374151">Flattened and typed</text>
<text x="1010.0" y="430" text-anchor="middle" font-size="14" fill="#374151">Deduplicated and checked</text>
<text x="1010.0" y="454" text-anchor="middle" font-size="14" fill="#374151">Upserts with Delta MERGE</text>
<rect x="922.0" y="488" width="176" height="28" rx="8" fill="#F3F4F6" stroke="#6B7685" stroke-opacity="0.6"/>
<text x="1010.0" y="507" text-anchor="middle" font-size="12" font-family="Consolas, Menlo, monospace" fill="#374151">weather_hourly</text>
<rect x="922.0" y="524" width="176" height="28" rx="8" fill="#F3F4F6" stroke="#6B7685" stroke-opacity="0.6"/>
<text x="1010.0" y="543" text-anchor="middle" font-size="12" font-family="Consolas, Menlo, monospace" fill="#374151">1 row per city per hour</text>
<rect x="1243" y="305" width="210" height="280" rx="14" fill="#0F172A" opacity="0.07"/>
<rect x="1240" y="300" width="210" height="280" rx="14" fill="#fff" stroke="#B07F00" stroke-width="2"/>
<rect x="1240" y="300" width="210" height="72" rx="14" fill="url(#gGold)"/>
<rect x="1240" y="350" width="210" height="22" fill="url(#gGold)"/>
<circle class="pulse" cx="1276" cy="336" r="24" fill="#fff" stroke="#B07F00" stroke-width="3"/>
<text x="1276" y="345" text-anchor="middle" font-size="24" font-weight="700" fill="#B07F00">3</text>
<text x="1367.0" y="337" text-anchor="middle" font-size="22" font-weight="700" letter-spacing="2" fill="#fff">GOLD</text>
<text x="1367.0" y="358" text-anchor="middle" font-size="13" fill="#fff">business zone</text>
<text x="1345.0" y="406" text-anchor="middle" font-size="14" fill="#374151">Business-ready tables</text>
<text x="1345.0" y="430" text-anchor="middle" font-size="14" fill="#374151">Star schema</text>
<text x="1345.0" y="454" text-anchor="middle" font-size="14" fill="#374151">Daily min, max and average</text>
<rect x="1257.0" y="488" width="176" height="28" rx="8" fill="#F3F4F6" stroke="#B07F00" stroke-opacity="0.6"/>
<text x="1345.0" y="507" text-anchor="middle" font-size="12" font-family="Consolas, Menlo, monospace" fill="#374151">dim_city</text>
<rect x="1257.0" y="524" width="176" height="28" rx="8" fill="#F3F4F6" stroke="#B07F00" stroke-opacity="0.6"/>
<text x="1345.0" y="543" text-anchor="middle" font-size="12" font-family="Consolas, Menlo, monospace" fill="#374151">fact_daily_weather</text>
<line class="flow" x1="786.5" y1="440" x2="898.5" y2="440" stroke="#4B5563" stroke-width="3" marker-end="url(#mGray)"/>
<circle class="pulse" cx="842.5" cy="396" r="27" fill="#fff" stroke="#FF3621" stroke-width="2.5"/>
<g transform="translate(827.50,381.00) scale(1.2500)" fill="#FF3621"><path d="M.95 14.184L12 20.403l9.919-5.55v2.21L12 22.662l-10.484-5.96-.565.308v.77L12 24l11.05-6.218v-4.317l-.515-.309L12 19.118l-9.867-5.653v-2.21L12 16.805l11.05-6.218V6.32l-.515-.308L12 11.974 2.647 6.681 12 1.388l7.76 4.368.668-.411v-.566L12 0 .95 6.27v.72L12 13.207l9.919-5.55v2.26L12 15.52 1.516 9.56l-.565.308Z"/></g>
<text x="842.5" y="472" text-anchor="middle" font-size="12" font-weight="700" fill="#C62A18">clean + MERGE</text>
<line class="flow" x1="1121.5" y1="440" x2="1233.5" y2="440" stroke="#4B5563" stroke-width="3" marker-end="url(#mGray)"/>
<circle class="pulse" cx="1177.5" cy="396" r="27" fill="#fff" stroke="#FF3621" stroke-width="2.5"/>
<g transform="translate(1162.50,381.00) scale(1.2500)" fill="#FF3621"><path d="M.95 14.184L12 20.403l9.919-5.55v2.21L12 22.662l-10.484-5.96-.565.308v.77L12 24l11.05-6.218v-4.317l-.515-.309L12 19.118l-9.867-5.653v-2.21L12 16.805l11.05-6.218V6.32l-.515-.308L12 11.974 2.647 6.681 12 1.388l7.76 4.368.668-.411v-.566L12 0 .95 6.27v.72L12 13.207l9.919-5.55v2.26L12 15.52 1.516 9.56l-.565.308Z"/></g>
<text x="1177.5" y="472" text-anchor="middle" font-size="12" font-weight="700" fill="#C62A18">aggregate</text>
<rect x="1543" y="245" width="220" height="200" rx="16" fill="#0F172A" opacity="0.07"/>
<rect x="1540" y="240" width="220" height="200" rx="16" fill="#fff" stroke="#00508F" stroke-width="2"/>
<text x="1650.0" y="268" text-anchor="middle" font-size="12" font-weight="700" letter-spacing="2.5" fill="#00508F">SERVE</text>
<g transform="translate(1618.00,282.00) scale(3.5556)"><defs><radialGradient id="sql_b" cx="9.36" cy="10.57" r="7.07" gradientUnits="userSpaceOnUse"><stop offset="0" stop-color="#f2f2f2"/><stop offset=".58" stop-color="#eee"/><stop offset="1" stop-color="#e6e6e6"/></radialGradient><linearGradient id="sql_a" x1="2.59" y1="10.16" x2="15.41" y2="10.16" gradientUnits="userSpaceOnUse"><stop offset="0" stop-color="#005ba1"/><stop offset=".07" stop-color="#0060a9"/><stop offset=".36" stop-color="#0071c8"/><stop offset=".52" stop-color="#0078d4"/><stop offset=".64" stop-color="#0074cd"/><stop offset=".82" stop-color="#006abb"/><stop offset="1" stop-color="#005ba1"/></linearGradient></defs><path d="M9 5.14c-3.54 0-6.41-1-6.41-2.32v12.36c0 1.27 2.82 2.3 6.32 2.32H9c3.54 0 6.41-1 6.41-2.32V2.82c0 1.29-2.87 2.32-6.41 2.32z" fill="url(#sql_a)"/><path d="M15.41 2.82c0 1.29-2.87 2.32-6.41 2.32s-6.41-1-6.41-2.32S5.46.5 9 .5s6.41 1 6.41 2.32" fill="#e8e8e8"/><path d="M13.92 2.63c0 .82-2.21 1.48-4.92 1.48s-4.92-.66-4.92-1.48S6.29 1.16 9 1.16s4.92.66 4.92 1.47" fill="#50e6ff"/><path d="M9 3a11.55 11.55 0 00-3.89.57A11.42 11.42 0 009 4.11a11.15 11.15 0 003.89-.58A11.84 11.84 0 009 3z" fill="#198ab3"/><path d="M12.9 11.4V8H12v4.13h2.46v-.73zM5.76 9.73a1.83 1.83 0 01-.51-.31.44.44 0 01-.12-.32.34.34 0 01.15-.3.68.68 0 01.42-.12 1.62 1.62 0 011 .29v-.86a2.58 2.58 0 00-1-.16 1.64 1.64 0 00-1.09.34 1.08 1.08 0 00-.42.89c0 .51.32.91 1 1.21a2.88 2.88 0 01.62.36.42.42 0 01.15.32.38.38 0 01-.16.31.81.81 0 01-.45.11 1.66 1.66 0 01-1.09-.42V12a2.17 2.17 0 001.07.24 1.88 1.88 0 001.18-.33 1.08 1.08 0 00.33-.91 1.05 1.05 0 00-.25-.7 2.42 2.42 0 00-.83-.57zM11 11.32a2.34 2.34 0 00.33-1.26A2.32 2.32 0 0011 9a1.81 1.81 0 00-.7-.75 2 2 0 00-1-.26 2.11 2.11 0 00-1.08.27 1.86 1.86 0 00-.73.74 2.46 2.46 0 00-.26 1.14 2.26 2.26 0 00.24 1 1.76 1.76 0 00.69.74 2.06 2.06 0 001 .3l.86 1h1.21L10 12.08a1.79 1.79 0 001-.76zm-1-.25a.94.94 0 01-.76.35.92.92 0 01-.76-.36 1.52 1.52 0 01-.29-1 1.53 1.53 0 01.29-1 1 1 0 01.78-.37.87.87 0 01.75.37 1.62 1.62 0 01.27 1 1.46 1.46 0 01-.28 1.01z" fill="url(#sql_b)"/></g>
<text x="1650.0" y="372" text-anchor="middle" font-size="17" font-weight="700" fill="#111827">Azure SQL Database</text>
<text x="1650.0" y="396" text-anchor="middle" font-size="13" fill="#4B5563">Gold tables loaded by</text>
<text x="1650.0" y="416" text-anchor="middle" font-size="13" fill="#4B5563">the load_sql task</text>
<rect x="1543" y="495" width="220" height="190" rx="16" fill="#0F172A" opacity="0.07"/>
<rect x="1540" y="490" width="220" height="190" rx="16" fill="#fff" stroke="#C9A100" stroke-width="2"/>
<text x="1650.0" y="518" text-anchor="middle" font-size="12" font-weight="700" letter-spacing="2.5" fill="#C9A100">REPORT</text>
<g transform="translate(1618.00,532.00) scale(1.8824)"><defs><path id="pbi_a" d="M.9 0h32.2v33.9H.9z"/></defs><clipPath id="pbi_b"><use xlink:href="#pbi_a" overflow="visible"/></clipPath><path clip-path="url(#pbi_b)" fill="#F2C811" d="M11.1 27.3c0 1.1-.9 2.1-2.1 2.1s-2.1-.9-2.1-2.1v-9c0-1.1.9-2.1 2.1-2.1s2.1.9 2.1 2.1v9zm6 2.4c0 1.1-.9 2.1-2.1 2.1s-2-.9-2-2.1V16c0-1.1.9-2.1 2.1-2.1s2.1.9 2.1 2.1v13.7zM5 25.3c0 1.1-.9 2.1-2.1 2.1S.8 26.5.8 25.3v-4.9c0-1.1.9-2.1 2.1-2.1s2.1 1 2.1 2.1v4.9zm18.1 6.6c0 1.1-.9 2.1-2.1 2.1-1.1 0-2-1-2-2.1V13.7c0-1.1.9-2.1 2.1-2.1 1.1 0 2.1.9 2.1 2.1v18.2z"/><path clip-path="url(#pbi_b)" fill="#F2C811" d="M29.7 31c-.4 0-.7-.1-1.1-.2l-2.5-.8c-.4-.1-.7-.6-.5-1 .1-.4.6-.7 1-.5l2.6.8c.5.2 1.1.1 1.6-.3.5-.3.7-.9.7-1.4V10.9c0-.8-.5-1.5-1.2-1.7L5.8 1.8c-.5-.2-1.1-.1-1.6.2-.4.4-.7.9-.7 1.5V15c0 .5-.4.8-.8.8-.5 0-.8-.4-.8-.8V3.5c0-1.1.5-2.1 1.4-2.7.9-.7 2-.8 3-.5l24.4 7.4c1.4.4 2.4 1.8 2.4 3.3v16.7c0 1.1-.5 2.1-1.4 2.8-.6.2-1.3.5-2 .5"/></g>
<text x="1650.0" y="622" text-anchor="middle" font-size="17" font-weight="700" fill="#111827">Power BI</text>
<text x="1650.0" y="646" text-anchor="middle" font-size="13" fill="#4B5563">Dashboard with city slicer</text>
<text x="1650.0" y="666" text-anchor="middle" font-size="13" fill="#4B5563">and trend charts</text>
<path class="flow" d="M1454 440 L1500 440 L1500 340 L1536 340" fill="none" stroke="#4B5563" stroke-width="3" marker-end="url(#mGray)"/>
<line class="flow" x1="1650" y1="444" x2="1650" y2="486" stroke="#4B5563" stroke-width="3" marker-end="url(#mGray)"/>
<rect x="543" y="715" width="940" height="100" rx="16" fill="#0F172A" opacity="0.07"/>
<rect x="540" y="710" width="940" height="100" rx="16" fill="#FFF1EE" stroke="#FF3621" stroke-width="2" stroke-dasharray="9 6"/>
<g transform="translate(566.00,734.00) scale(2.1667)" fill="#FF3621"><path d="M.95 14.184L12 20.403l9.919-5.55v2.21L12 22.662l-10.484-5.96-.565.308v.77L12 24l11.05-6.218v-4.317l-.515-.309L12 19.118l-9.867-5.653v-2.21L12 16.805l11.05-6.218V6.32l-.515-.308L12 11.974 2.647 6.681 12 1.388l7.76 4.368.668-.411v-.566L12 0 .95 6.27v.72L12 13.207l9.919-5.55v2.26L12 15.52 1.516 9.56l-.565.308Z"/></g>
<text x="634" y="754" font-size="21" font-weight="700" fill="#B91C1C">Databricks Job (serverless)</text>
<text x="634" y="780" font-size="14" fill="#4B5563">Tasks: silver, gold, load_sql. Runs after ingestion, with retries.</text>
<g transform="translate(1190.00,728.00) scale(1.6667)" fill="#E25A1C"><path d="M10.812 0c-.425.013-.845.215-1.196.605a3.593 3.593 0 00-.493.722c-.355.667-.425 1.415-.556 2.143a551.9 551.9 0 00-.726 4.087c-.027.16-.096.227-.244.273C5.83 8.386 4.06 8.94 2.3 9.514c-.387.125-.773.289-1.114.506-1.042.665-1.196 1.753-.415 2.71.346.422.79.715 1.284.936 1.1.49 2.202.976 3.3 1.47.019.01.036.013.053.019h-.004l1.306.535c0 .023.002.045 0 .073-.2 2.03-.39 4.063-.58 6.095-.04.419-.012.831.134 1.23.317.87 1.065 1.148 1.881.701.372-.204.666-.497.937-.818 1.372-1.623 2.746-3.244 4.113-4.872.111-.133.205-.15.363-.098.349.117.697.231 1.045.347h.001c.02.012.045.02.073.03l.142.042c1.248.416 2.68.775 3.929 1.19.4.132.622.164 1.045.098.311-.048.592-.062.828-.236.602-.33.995-.957.988-1.682-.005-.427-.154-.813-.35-1.186-.82-1.556-1.637-3.113-2.461-4.666-.078-.148-.076-.243.037-.375 1.381-1.615 2.756-3.236 4.133-4.855.272-.32.513-.658.653-1.058.308-.878-.09-1.57-1-1.741a2.783 2.783 0 00-1.235.069c-1.974.521-3.947 1.041-5.918 1.57-.175.047-.26.015-.355-.144a353.08 353.08 0 00-2.421-4.018 4.61 4.61 0 00-.652-.849c-.371-.37-.802-.549-1.227-.536zm.172 3.703a.592.592 0 01.189.211c.87 1.446 1.742 2.89 2.609 4.338.07.118.135.16.277.121 1.525-.41 3.052-.813 4.579-1.217.367-.098.735-.193 1.103-.289a.399.399 0 01-.1.2c-1.259 1.48-2.516 2.962-3.779 4.438-.11.13-.12.22-.04.37.937 1.803 1.768 3.309 2.498 4.76l-3.696-1.019c-.538-.18-1.077-.358-1.615-.539-.163-.055-.25-.03-.36.1-1.248 1.488-2.504 2.97-3.759 4.454a.398.398 0 01-.18.132c.035-.378.068-.757.104-1.136.149-1.572.297-3.144.451-4.716-.03-.318.117-.405-.322-.545-1.493-.593-3.346-1.321-4.816-1.905a.595.595 0 01.24-.134c1.797-.57 3.595-1.14 5.394-1.705.127-.04.199-.092.211-.233.013-.148.05-.294.076-.441.241-1.363.483-2.726.726-4.088.068-.386.14-.771.21-1.157z"/></g>
<text x="1210" y="788" text-anchor="middle" font-size="12" font-weight="700" fill="#4B5563">PySpark</text>
<g transform="translate(1290.00,728.00) scale(1.6667)" fill="#3776AB"><path d="M14.25.18l.9.2.73.26.59.3.45.32.34.34.25.34.16.33.1.3.04.26.02.2-.01.13V8.5l-.05.63-.13.55-.21.46-.26.38-.3.31-.33.25-.35.19-.35.14-.33.1-.3.07-.26.04-.21.02H8.77l-.69.05-.59.14-.5.22-.41.27-.33.32-.27.35-.2.36-.15.37-.1.35-.07.32-.04.27-.02.21v3.06H3.17l-.21-.03-.28-.07-.32-.12-.35-.18-.36-.26-.36-.36-.35-.46-.32-.59-.28-.73-.21-.88-.14-1.05-.05-1.23.06-1.22.16-1.04.24-.87.32-.71.36-.57.4-.44.42-.33.42-.24.4-.16.36-.1.32-.05.24-.01h.16l.06.01h8.16v-.83H6.18l-.01-2.75-.02-.37.05-.34.11-.31.17-.28.25-.26.31-.23.38-.2.44-.18.51-.15.58-.12.64-.1.71-.06.77-.04.84-.02 1.27.05zm-6.3 1.98l-.23.33-.08.41.08.41.23.34.33.22.41.09.41-.09.33-.22.23-.34.08-.41-.08-.41-.23-.33-.33-.22-.41-.09-.41.09zm13.09 3.95l.28.06.32.12.35.18.36.27.36.35.35.47.32.59.28.73.21.88.14 1.04.05 1.23-.06 1.23-.16 1.04-.24.86-.32.71-.36.57-.4.45-.42.33-.42.24-.4.16-.36.09-.32.05-.24.02-.16-.01h-8.22v.82h5.84l.01 2.76.02.36-.05.34-.11.31-.17.29-.25.25-.31.24-.38.2-.44.17-.51.15-.58.13-.64.09-.71.07-.77.04-.84.01-1.27-.04-1.07-.14-.9-.2-.73-.25-.59-.3-.45-.33-.34-.34-.25-.34-.16-.33-.1-.3-.04-.25-.02-.2.01-.13v-5.34l.05-.64.13-.54.21-.46.26-.38.3-.32.33-.24.35-.2.35-.14.33-.1.3-.06.26-.04.21-.02.13-.01h5.84l.69-.05.59-.14.5-.21.41-.28.33-.32.27-.35.2-.36.15-.36.1-.35.07-.32.04-.28.02-.21V6.07h2.09l.14.01zm-6.47 14.25l-.23.33-.08.41.08.41.23.33.33.23.41.08.41-.08.33-.23.23-.33.08-.41-.08-.41-.23-.33-.33-.23-.41-.08-.41.08z"/></g>
<text x="1310" y="788" text-anchor="middle" font-size="12" font-weight="700" fill="#4B5563">Python</text>
<g transform="translate(1383.00,721.00) scale(2.2500)" fill="#00ADD4"><path d="M24 13.455h-.689l-.288-.739h-1.2l-.289.739h-.644l1.233-2.96h.666zm-1.16-1.233l-.411-1.044-.411 1.044zm-4.315 1.233h.66v-2.438h.995v-.51h-2.644v.51h.989zm-3.826 0h1.927v-.511H15.36v-2.438h-.661zm-3.282-2.438h1.416v-.51h-2.077v2.948h2.121v-.511h-1.46v-.766h1.25v-.511h-1.25zm-4.981 2.438h1.038c1.072 0 1.71-.555 1.71-1.472 0-.916-.638-1.471-1.71-1.471H6.436zm.655-2.438h.383c.694 0 1.044.344 1.044.96 0 .617-.344.961-1.044.961h-.383zm-2.277 2.155a.15.15 0 0 1 .15.15.15.15 0 0 1-.15.15.15.15 0 0 1-.15-.15.15.15 0 0 1 .15-.15m0 .277a.13.13 0 0 0 .134-.127c0-.073-.056-.128-.134-.128a.126.126 0 0 0-.127.128c0 .072.055.127.127.127m-.033-.039H4.76v-.177h.067c.038 0 .055.016.055.05 0 .033-.022.044-.044.05l.055.077h-.028l-.05-.077h-.033zm0-.1h.028c.022 0 .05 0 .05-.027 0-.022-.022-.028-.039-.028h-.039zM0 13.85h4.626l-2.31-.978zm.172-.395l2.144-1.033 2.143 1.033-2.143-3.304Z"/></g>
<text x="1410" y="788" text-anchor="middle" font-size="12" font-weight="700" fill="#4B5563">Delta</text>
<line class="flow" x1="675" y1="584" x2="675" y2="706" stroke="#E0301E" stroke-width="2.5" marker-end="url(#mRed)"/>
<text x="687" y="650" font-size="12" font-weight="700" fill="#C62A18">reads</text>
<line class="flow" x1="1010" y1="706" x2="1010" y2="584" stroke="#E0301E" stroke-width="2.5" marker-end="url(#mRed)"/>
<text x="1022" y="650" font-size="12" font-weight="700" fill="#C62A18">writes</text>
<line class="flow" x1="1345" y1="706" x2="1345" y2="584" stroke="#E0301E" stroke-width="2.5" marker-end="url(#mRed)"/>
<text x="1357" y="650" font-size="12" font-weight="700" fill="#C62A18">writes</text>
<path class="flow" d="M390 544 L390 760 L536 760" fill="none" stroke="#0078D4" stroke-width="3" marker-end="url(#mBlue)"/>
<text x="402" y="650" font-size="13" font-weight="700" fill="#0078D4">then runs</text>
<text x="402" y="668" font-size="13" font-weight="700" fill="#0078D4">the job</text>
<rect x="1543" y="715" width="220" height="100" rx="16" fill="#0F172A" opacity="0.07"/>
<rect x="1540" y="710" width="220" height="100" rx="16" fill="#fff" stroke="#5C2D91" stroke-width="2"/>
<g transform="translate(1556.00,738.00) scale(2.4444)"><defs><radialGradient id="kv_a" cx="9" cy="9" r="8.5" gradientUnits="userSpaceOnUse"><stop offset=".18" stop-color="#5ea0ef"/><stop offset=".56" stop-color="#5c9fee"/><stop offset=".69" stop-color="#559ced"/><stop offset=".78" stop-color="#4a97e9"/><stop offset=".86" stop-color="#3990e4"/><stop offset=".93" stop-color="#2387de"/><stop offset=".99" stop-color="#087bd6"/><stop offset="1" stop-color="#0078d4"/></radialGradient><radialGradient id="kv_b" cx="38.95" cy="182.07" r="9.88" gradientTransform="matrix(.94 0 0 .94 -28.71 -163.24)" gradientUnits="userSpaceOnUse"><stop offset=".27" stop-color="#ffd70f"/><stop offset=".49" stop-color="#ffcb12"/><stop offset=".88" stop-color="#feac19"/><stop offset="1" stop-color="#fea11b"/></radialGradient></defs><path d="M9 .5A8.5 8.5 0 1017.5 9 8.51 8.51 0 009 .5zm0 15.84A7.34 7.34 0 1116.34 9 7.34 7.34 0 019 16.34z" fill="url(#kv_a)"/><circle cx="9" cy="9" r="7.34" fill="#fff"/><path d="M13.44 7.33a1.84 1.84 0 000-2.59l-3.15-3.16a1.83 1.83 0 00-2.58 0L4.56 4.74a1.84 1.84 0 000 2.59L7.18 10a.51.51 0 01.15.36v4.88a.63.63 0 00.18.44l1.2 1.2a.41.41 0 00.58 0l1.16-1.16.68-.68a.25.25 0 000-.34l-.49-.49a.27.27 0 010-.37l.49-.49a.25.25 0 000-.34l-.49-.49a.27.27 0 010-.37l.49-.49a.25.25 0 000-.34l-.68-.69v-.25zM9 2.35a1 1 0 010 2.07 1 1 0 110-2.07z" fill="url(#kv_b)"/><path d="M8.18 15.3a.23.23 0 00.38-.17v-4a.24.24 0 00-.11-.2.22.22 0 00-.34.2v4a.28.28 0 00.07.17z" fill="#ff9300" opacity=".75"/><rect x="6.48" y="5.79" width="5.17" height=".61" rx=".28" fill="#ff9300" opacity=".75"/><rect x="6.48" y="6.78" width="5.17" height=".61" rx=".28" fill="#ff9300" opacity=".75"/></g>
<text x="1612" y="752" font-size="17" font-weight="700" fill="#5C2D91">Key Vault</text>
<text x="1612" y="772" font-size="12" fill="#4B5563">SQL password via</text>
<text x="1612" y="788" font-size="12" fill="#4B5563">a secret scope</text>
<line class="flow" x1="1536" y1="760" x2="1484" y2="760" stroke="#5C2D91" stroke-width="2.5" marker-end="url(#mPurple)"/>
<rect x="43" y="855" width="1720" height="62" rx="14" fill="#0F172A" opacity="0.07"/>
<rect x="40" y="850" width="1720" height="62" rx="14" fill="#fff" stroke="#D1D5DB" stroke-width="1.5"/>
<g transform="translate(70.00,864.00) scale(1.5000)" fill="#181717"><path d="M12 .297c-6.63 0-12 5.373-12 12 0 5.303 3.438 9.8 8.205 11.385.6.113.82-.258.82-.577 0-.285-.01-1.04-.015-2.04-3.338.724-4.042-1.61-4.042-1.61C4.422 18.07 3.633 17.7 3.633 17.7c-1.087-.744.084-.729.084-.729 1.205.084 1.838 1.236 1.838 1.236 1.07 1.835 2.809 1.305 3.495.998.108-.776.417-1.305.76-1.605-2.665-.3-5.466-1.332-5.466-5.93 0-1.31.465-2.38 1.235-3.22-.135-.303-.54-1.523.105-3.176 0 0 1.005-.322 3.3 1.23.96-.267 1.98-.399 3-.405 1.02.006 2.04.138 3 .405 2.28-1.552 3.285-1.23 3.285-1.23.645 1.653.24 2.873.12 3.176.765.84 1.23 1.91 1.23 3.22 0 4.61-2.805 5.625-5.475 5.92.42.36.81 1.096.81 2.22 0 1.606-.015 2.896-.015 3.286 0 .315.21.69.825.57C20.565 22.092 24 17.592 24 12.297c0-6.627-5.373-12-12-12"/></g>
<text x="118" y="879" font-size="15" font-weight="700" fill="#111827">Code on GitHub</text>
<text x="118" y="897" font-size="12" fill="#6B7280">src, notebooks, docs</text>
<g transform="translate(500.00,864.00) scale(1.5000)" fill="#2088FF"><path d="M10.984 13.836a.5.5 0 0 1-.353-.146l-.745-.743a.5.5 0 1 1 .706-.708l.392.391 1.181-1.18a.5.5 0 0 1 .708.707l-1.535 1.533a.504.504 0 0 1-.354.146zm9.353-.147l1.534-1.532a.5.5 0 0 0-.707-.707l-1.181 1.18-.392-.391a.5.5 0 1 0-.706.708l.746.743a.497.497 0 0 0 .706-.001zM4.527 7.452l2.557-1.585A1 1 0 0 0 7.09 4.17L4.533 2.56A1 1 0 0 0 3 3.406v3.196a1.001 1.001 0 0 0 1.527.85zm2.03-2.436L4 6.602V3.406l2.557 1.61zM24 12.5c0 1.93-1.57 3.5-3.5 3.5a3.503 3.503 0 0 1-3.46-3h-2.08a3.503 3.503 0 0 1-3.46 3 3.502 3.502 0 0 1-3.46-3h-.558c-.972 0-1.85-.399-2.482-1.042V17c0 1.654 1.346 3 3 3h.04c.244-1.693 1.7-3 3.46-3 1.93 0 3.5 1.57 3.5 3.5S13.43 24 11.5 24a3.502 3.502 0 0 1-3.46-3H8c-2.206 0-4-1.794-4-4V9.899A5.008 5.008 0 0 1 0 5c0-2.757 2.243-5 5-5s5 2.243 5 5a5.005 5.005 0 0 1-4.952 4.998A2.482 2.482 0 0 0 7.482 12h.558c.244-1.693 1.7-3 3.46-3a3.502 3.502 0 0 1 3.46 3h2.08a3.503 3.503 0 0 1 3.46-3c1.93 0 3.5 1.57 3.5 3.5zm-15 8c0 1.378 1.122 2.5 2.5 2.5s2.5-1.122 2.5-2.5-1.122-2.5-2.5-2.5S9 19.122 9 20.5zM5 9c2.206 0 4-1.794 4-4S7.206 1 5 1 1 2.794 1 5s1.794 4 4 4zm9 3.5c0-1.378-1.122-2.5-2.5-2.5S9 11.122 9 12.5s1.122 2.5 2.5 2.5 2.5-1.122 2.5-2.5zm9 0c0-1.378-1.122-2.5-2.5-2.5S18 11.122 18 12.5s1.122 2.5 2.5 2.5 2.5-1.122 2.5-2.5zm-13 8a.5.5 0 1 0 1 0 .5.5 0 0 0-1 0zm2 0a.5.5 0 1 0 1 0 .5.5 0 0 0-1 0zm12 0c0 1.93-1.57 3.5-3.5 3.5a3.503 3.503 0 0 1-3.46-3.002c-.007.001-.013.005-.021.005l-.506.017h-.017a.5.5 0 0 1-.016-.999l.506-.017c.018-.002.035.006.052.007A3.503 3.503 0 0 1 20.5 17c1.93 0 3.5 1.57 3.5 3.5zm-1 0c0-1.378-1.122-2.5-2.5-2.5S18 19.122 18 20.5s1.122 2.5 2.5 2.5 2.5-1.122 2.5-2.5z"/></g>
<text x="548" y="879" font-size="15" font-weight="700" fill="#111827">CI with GitHub Actions</text>
<text x="548" y="897" font-size="12" fill="#6B7280">flake8 lint on every push</text>
<g transform="translate(960.00,864.00) scale(1.5000)" fill="#3776AB"><path d="M14.25.18l.9.2.73.26.59.3.45.32.34.34.25.34.16.33.1.3.04.26.02.2-.01.13V8.5l-.05.63-.13.55-.21.46-.26.38-.3.31-.33.25-.35.19-.35.14-.33.1-.3.07-.26.04-.21.02H8.77l-.69.05-.59.14-.5.22-.41.27-.33.32-.27.35-.2.36-.15.37-.1.35-.07.32-.04.27-.02.21v3.06H3.17l-.21-.03-.28-.07-.32-.12-.35-.18-.36-.26-.36-.36-.35-.46-.32-.59-.28-.73-.21-.88-.14-1.05-.05-1.23.06-1.22.16-1.04.24-.87.32-.71.36-.57.4-.44.42-.33.42-.24.4-.16.36-.1.32-.05.24-.01h.16l.06.01h8.16v-.83H6.18l-.01-2.75-.02-.37.05-.34.11-.31.17-.28.25-.26.31-.23.38-.2.44-.18.51-.15.58-.12.64-.1.71-.06.77-.04.84-.02 1.27.05zm-6.3 1.98l-.23.33-.08.41.08.41.23.34.33.22.41.09.41-.09.33-.22.23-.34.08-.41-.08-.41-.23-.33-.33-.22-.41-.09-.41.09zm13.09 3.95l.28.06.32.12.35.18.36.27.36.35.35.47.32.59.28.73.21.88.14 1.04.05 1.23-.06 1.23-.16 1.04-.24.86-.32.71-.36.57-.4.45-.42.33-.42.24-.4.16-.36.09-.32.05-.24.02-.16-.01h-8.22v.82h5.84l.01 2.76.02.36-.05.34-.11.31-.17.29-.25.25-.31.24-.38.2-.44.17-.51.15-.58.13-.64.09-.71.07-.77.04-.84.01-1.27-.04-1.07-.14-.9-.2-.73-.25-.59-.3-.45-.33-.34-.34-.25-.34-.16-.33-.1-.3-.04-.25-.02-.2.01-.13v-5.34l.05-.64.13-.54.21-.46.26-.38.3-.32.33-.24.35-.2.35-.14.33-.1.3-.06.26-.04.21-.02.13-.01h5.84l.69-.05.59-.14.5-.21.41-.28.33-.32.27-.35.2-.36.15-.36.1-.35.07-.32.04-.28.02-.21V6.07h2.09l.14.01zm-6.47 14.25l-.23.33-.08.41.08.41.23.33.33.23.41.08.41-.08.33-.23.23-.33.08-.41-.08-.41-.23-.33-.33-.23-.41-.08-.41.08z"/></g>
<text x="1008" y="879" font-size="15" font-weight="700" fill="#111827">Python prototype</text>
<text x="1008" y="897" font-size="12" fill="#6B7280">src/fetch_weather.py tests the API</text>
<text x="1740" y="886" text-anchor="end" font-size="13" font-style="italic" fill="#6B7280">Delivery: version-controlled and checked</text>
</svg>